<?xml version="1.0" standalone="no"?>
<!DOCTYPE svg PUBLIC "-//W3C//DTD SVG 1.1//EN" "http://www.w3.org/Graphics/SVG/1.1/DTD/svg11.dtd">
<!--Generator: Xara Designer (www.xara.com), SVG filter version: 6.7.0.0-->
<svg fill="none" fill-rule="evenodd" stroke="black" stroke-width="0.501" stroke-linejoin="bevel" stroke-miterlimit="10" font-family="Times New Roman" font-size="16" style="font-variant-ligatures:none" xmlns:xlink="http://www.w3.org/1999/xlink" xmlns="http://www.w3.org/2000/svg" version="1.1" overflow="visible" width="375.755pt" height="116.858pt" viewBox="109.423 -776.267 375.755 116.858">
 <defs>
	</defs>
 <g id="Layer 1" transform="scale(1 -1)">
  <g id="Group">
   <g id="Group_1" fill="#191919" fill-rule="nonzero" stroke-linejoin="round" stroke-linecap="round" stroke="none" stroke-width="2.211">
    <path d="M 261.743,745.773 C 261.153,745.714 260.416,745.596 259.532,745.419 L 259.532,702.345 C 259.532,700.399 259.679,698.836 259.974,697.657 C 260.269,696.478 260.74,695.534 261.389,694.827 C 262.038,694.119 262.848,693.633 263.821,693.367 C 264.794,693.102 265.988,692.94 267.403,692.881 C 267.698,692.055 267.846,690.788 267.846,689.078 C 266.489,689.196 264.809,689.269 262.804,689.299 C 260.799,689.328 258.765,689.343 256.701,689.343 L 253.34,689.343 C 252.22,689.343 251.1,689.328 249.979,689.299 C 248.859,689.269 247.842,689.24 246.928,689.21 C 246.014,689.181 245.262,689.137 244.672,689.078 C 244.672,690.788 244.82,692.055 245.115,692.881 C 247.473,692.999 249.08,693.574 249.935,694.606 C 250.79,695.637 251.217,697.628 251.217,700.576 L 251.217,737.901 C 251.217,740.849 250.79,742.839 249.935,743.871 C 249.08,744.903 247.473,745.478 245.115,745.596 C 244.82,746.421 244.672,747.689 244.672,749.399 C 246.972,749.281 249.198,749.207 251.35,749.178 C 253.502,749.148 255.286,749.134 256.701,749.134 C 258.234,749.134 260.077,749.163 262.229,749.222 C 264.381,749.281 266.725,749.31 269.261,749.31 C 272.504,749.31 275.305,748.839 277.663,747.895 C 280.022,746.952 281.968,745.669 283.501,744.048 C 285.034,742.426 286.169,740.525 286.906,738.343 C 287.643,736.161 288.012,733.832 288.012,731.356 C 288.012,729.115 287.599,726.83 286.773,724.501 C 285.948,722.172 284.695,720.064 283.014,718.177 C 281.334,716.29 279.241,714.742 276.735,713.533 C 274.229,712.325 271.295,711.72 267.934,711.72 C 266.696,711.72 265.561,711.809 264.529,711.986 C 263.497,712.162 262.568,712.398 261.743,712.693 C 261.625,713.165 261.581,713.666 261.61,714.197 C 261.64,714.727 261.713,715.199 261.831,715.612 C 263.305,715.258 264.927,715.081 266.696,715.081 C 268.347,715.081 269.939,715.288 271.472,715.7 C 273.005,716.113 274.376,716.85 275.585,717.912 C 276.794,718.973 277.766,720.418 278.504,722.245 C 279.241,724.073 279.609,726.402 279.609,729.233 C 279.609,731.709 279.314,733.965 278.725,735.999 C 278.135,738.033 277.221,739.788 275.983,741.262 C 274.745,742.736 273.182,743.886 271.295,744.711 C 269.408,745.537 267.138,745.949 264.485,745.949 C 263.482,745.949 262.568,745.89 261.743,745.773 Z" marker-start="none" marker-end="none"/>
    <path d="M 320.444,709.219 C 321.65,710.859 322.478,712.262 322.926,713.425 C 323.373,714.589 323.524,715.6 323.376,716.459 C 323.229,717.318 322.793,718.052 322.065,718.663 C 321.338,719.273 320.375,719.853 319.176,720.401 C 319.066,721.645 319.177,722.925 319.511,724.239 C 320.797,723.791 322.125,723.393 323.497,723.045 L 332.413,720.781 C 333.841,720.418 335.227,720.127 336.571,719.908 C 336.426,719.336 336.26,718.74 336.071,718.118 C 335.883,717.497 335.567,716.908 335.121,716.352 C 334.277,716.384 333.526,716.3 332.868,716.103 C 332.209,715.905 331.554,715.539 330.901,715.005 C 330.249,714.472 329.527,713.726 328.737,712.771 C 327.946,711.816 327.005,710.625 325.914,709.199 L 305.694,682.394 C 303.05,678.929 300.794,676.155 298.928,674.074 C 297.061,671.993 295.407,670.451 293.966,669.448 C 292.526,668.445 291.193,667.87 289.97,667.725 C 288.746,667.579 287.477,667.673 286.163,668.006 C 284.448,668.442 283.145,669.001 282.255,669.684 C 281.363,670.366 280.69,671.008 280.234,671.611 C 280.223,672.526 280.409,673.62 280.793,674.891 C 281.177,676.162 281.549,677.148 281.909,677.847 C 283.765,677.011 285.55,676.376 287.264,675.94 C 288.922,675.519 290.592,675.506 292.273,675.9 C 293.955,676.295 295.6,677.261 297.208,678.799 C 297.752,679.27 298.481,680.043 299.393,681.119 C 300.306,682.195 301.35,683.496 302.529,685.022 C 302.773,685.265 302.988,685.514 303.175,685.771 C 302.797,687.875 302.411,690.071 302.019,692.361 C 301.572,695.151 301.11,697.885 300.633,700.561 C 300.157,703.237 299.694,705.787 299.245,708.213 C 298.796,710.639 298.404,712.746 298.067,714.536 C 297.575,716.911 297.139,718.847 296.758,720.342 C 296.378,721.839 295.967,723.038 295.527,723.94 C 295.088,724.843 294.621,725.524 294.13,725.984 C 293.638,726.443 293.042,726.853 292.342,727.213 C 292.261,728.328 292.402,729.601 292.765,731.03 C 294.407,730.552 296.054,730.088 297.704,729.638 C 299.354,729.189 300.922,728.776 302.408,728.399 L 307.895,727.006 L 311.002,726.308 C 312.045,726.104 312.996,725.893 313.854,725.676 C 313.476,724.19 312.964,723.012 312.318,722.142 C 310.702,722.248 309.414,722.209 308.456,722.027 C 307.496,721.844 306.784,721.433 306.317,720.79 C 305.849,720.148 305.621,719.249 305.631,718.09 C 305.641,716.932 305.843,715.45 306.236,713.647 C 306.489,712.245 306.78,710.635 307.11,708.818 C 307.439,707 307.769,705.122 308.097,703.182 C 308.427,701.244 308.715,699.33 308.966,697.441 C 309.148,696.239 309.288,695.109 309.383,694.05 C 309.828,694.607 310.281,695.191 310.741,695.804 L 320.444,709.219 Z" marker-start="none" marker-end="none"/>
    <path d="M 346.723,749.134 C 349.2,749.134 351.661,749.163 354.108,749.222 C 356.555,749.281 359.017,749.31 361.494,749.31 C 364.855,749.31 367.744,748.927 370.162,748.161 C 372.579,747.394 374.569,746.347 376.132,745.021 C 377.694,743.694 378.859,742.131 379.626,740.333 C 380.392,738.535 380.775,736.574 380.775,734.451 C 380.775,730.324 379.36,726.845 376.53,724.014 C 373.935,721.42 370.427,719.533 366.005,718.354 C 366.771,717.646 367.479,716.939 368.127,716.231 C 368.953,715.347 369.749,714.359 370.515,713.268 C 371.282,712.177 372.078,710.924 372.904,709.509 C 373.729,708.094 374.702,706.354 375.822,704.291 C 377.886,700.576 379.92,697.775 381.925,695.888 C 383.93,694.001 386.407,692.999 389.355,692.881 C 389.355,692.173 389.34,691.525 389.311,690.935 C 389.281,690.345 389.178,689.726 389.001,689.078 C 386.76,689.078 384.431,689.048 382.014,688.989 C 379.596,688.93 377.296,688.783 375.115,688.547 C 374.171,690.021 373.021,691.967 371.665,694.384 C 370.309,696.802 368.923,699.426 367.508,702.256 C 366.152,704.969 364.501,707.622 362.555,710.217 C 361.022,712.339 359.312,714.374 357.425,716.319 C 355.008,716.202 352.855,716.202 350.969,716.319 L 350.969,700.576 C 350.969,697.628 351.381,695.637 352.207,694.606 C 353.032,693.574 354.565,692.999 356.806,692.881 C 356.983,692.35 357.101,691.746 357.16,691.068 C 357.219,690.39 357.248,689.726 357.248,689.078 C 355.361,689.196 353.416,689.269 351.411,689.299 C 349.406,689.328 347.843,689.343 346.723,689.343 L 344.158,689.343 C 343.215,689.343 342.256,689.328 341.284,689.299 C 340.311,689.269 339.367,689.24 338.453,689.21 C 337.539,689.181 336.758,689.137 336.109,689.078 C 336.109,689.726 336.139,690.375 336.198,691.023 C 336.257,691.672 336.375,692.291 336.552,692.881 C 338.91,692.999 340.517,693.574 341.372,694.606 C 342.227,695.637 342.654,697.628 342.654,700.576 L 342.654,737.901 C 342.654,740.849 342.227,742.868 341.372,743.959 C 340.517,745.05 338.91,745.596 336.552,745.596 C 336.375,746.185 336.257,746.775 336.198,747.365 C 336.139,747.954 336.109,748.603 336.109,749.31 C 336.994,749.251 338.468,749.207 340.532,749.178 C 342.595,749.148 344.659,749.134 346.723,749.134 Z M 353.887,745.949 C 352.944,745.831 351.971,745.655 350.969,745.419 L 350.969,720.653 C 351.558,720.535 352.118,720.476 352.649,720.476 C 353.357,720.418 354.094,720.388 354.86,720.388 C 357.278,720.388 359.533,720.639 361.626,721.14 C 363.72,721.641 365.548,722.437 367.11,723.528 C 368.673,724.619 369.896,725.99 370.781,727.641 C 371.665,729.292 372.108,731.267 372.108,733.567 C 372.108,737.282 371.002,740.303 368.791,742.633 C 366.58,744.962 362.821,746.126 357.514,746.126 C 356.157,746.126 354.949,746.067 353.887,745.949 Z" marker-start="none" marker-end="none"/>
    <path d="M 418.578,718.531 C 418.578,719.592 418.504,720.506 418.357,721.273 C 418.209,722.039 417.9,722.673 417.428,723.174 C 416.956,723.675 416.293,724.059 415.438,724.324 C 414.583,724.589 413.418,724.751 411.944,724.81 C 411.944,725.459 411.974,726.034 412.033,726.535 C 412.092,727.036 412.269,727.552 412.563,728.083 C 414.863,728.201 417.104,728.496 419.285,728.967 C 421.467,729.439 423.236,729.999 424.592,730.648 C 425.123,730.471 425.58,730.103 425.963,729.542 C 426.347,728.982 426.538,728.053 426.538,726.756 L 426.538,701.372 C 426.538,700.31 426.597,699.396 426.715,698.63 C 426.833,697.863 427.098,697.229 427.511,696.728 C 427.924,696.227 428.513,695.844 429.28,695.578 C 430.047,695.313 431.108,695.151 432.464,695.092 C 432.464,694.443 432.435,693.81 432.376,693.19 C 432.317,692.571 432.169,691.937 431.933,691.289 C 431.285,691.289 430.459,691.215 429.457,691.068 C 428.455,690.92 427.437,690.729 426.405,690.493 C 425.374,690.257 424.401,689.962 423.487,689.608 C 422.573,689.254 421.85,688.901 421.32,688.547 C 420.789,688.724 420.288,689.107 419.816,689.697 C 419.344,690.286 419.109,691.348 419.109,692.881 C 419.109,694.06 419.168,695.239 419.285,696.419 L 419.285,697.215 C 418.696,695.918 417.811,694.679 416.632,693.5 C 413.625,690.493 410.057,688.989 405.93,688.989 C 403.866,688.989 402.023,689.254 400.402,689.785 C 398.78,690.316 397.409,691.186 396.289,692.394 C 395.169,693.603 394.328,695.21 393.768,697.215 C 393.208,699.22 392.928,701.726 392.928,704.733 L 392.928,718.088 C 392.928,719.15 392.884,720.064 392.795,720.83 C 392.707,721.597 392.456,722.231 392.044,722.732 C 391.631,723.233 391.041,723.616 390.275,723.882 C 389.508,724.147 388.447,724.309 387.091,724.368 C 387.091,725.017 387.12,725.592 387.179,726.093 C 387.238,726.594 387.415,727.11 387.71,727.641 C 388.594,727.7 389.552,727.832 390.584,728.039 C 391.616,728.245 392.633,728.481 393.636,728.746 C 394.638,729.012 395.596,729.307 396.51,729.631 C 397.424,729.955 398.235,730.294 398.942,730.648 C 399.473,730.471 399.93,730.103 400.313,729.542 C 400.697,728.982 400.888,728.053 400.888,726.756 L 400.888,706.679 C 400.888,702.197 401.478,699.028 402.657,697.171 C 403.837,695.313 405.9,694.384 408.849,694.384 C 410.028,694.384 411.207,694.679 412.387,695.269 C 413.566,695.859 414.612,696.773 415.526,698.011 C 416.44,699.249 417.177,700.826 417.738,702.743 C 418.298,704.659 418.578,706.915 418.578,709.509 L 418.578,718.531 Z" marker-start="none" marker-end="none"/>
    <path d="M 479.517,700.576 C 479.517,697.51 479.945,695.461 480.8,694.429 C 481.655,693.397 482.967,692.881 484.736,692.881 C 484.913,692.35 485.031,691.79 485.089,691.2 C 485.148,690.611 485.178,689.903 485.178,689.078 C 483.881,689.196 482.407,689.269 480.756,689.299 C 479.105,689.328 477.365,689.343 475.537,689.343 C 473.709,689.343 471.837,689.313 469.921,689.254 C 468.004,689.196 466.368,689.137 465.012,689.078 C 465.012,690.788 465.159,692.055 465.454,692.881 C 467.577,692.881 469.125,693.426 470.098,694.517 C 471.071,695.608 471.557,697.628 471.557,700.576 L 471.557,714.02 C 471.557,716.084 471.351,717.808 470.938,719.194 C 470.525,720.58 469.95,721.685 469.213,722.511 C 468.476,723.336 467.606,723.926 466.604,724.28 C 465.602,724.634 464.511,724.81 463.331,724.81 C 462.152,724.81 460.973,724.545 459.793,724.014 C 458.614,723.484 457.553,722.629 456.609,721.449 C 455.666,720.27 454.885,718.752 454.265,716.894 C 453.646,715.037 453.337,712.752 453.337,710.04 L 453.337,700.576 C 453.337,697.628 453.779,695.608 454.663,694.517 C 455.548,693.426 457.14,692.881 459.44,692.881 C 459.617,692.35 459.734,691.79 459.793,691.2 C 459.852,690.611 459.882,689.903 459.882,689.078 C 458.644,689.137 457.037,689.196 455.062,689.254 C 453.086,689.313 451.185,689.343 449.357,689.343 C 447.529,689.343 445.642,689.328 443.696,689.299 C 441.75,689.269 440.129,689.196 438.831,689.078 C 438.831,690.788 438.979,692.055 439.274,692.881 C 441.573,692.881 443.165,693.426 444.05,694.517 C 444.934,695.608 445.376,697.628 445.376,700.576 L 445.376,718.088 C 445.376,719.15 445.303,720.064 445.155,720.83 C 445.008,721.597 444.698,722.231 444.227,722.732 C 443.755,723.233 443.092,723.616 442.237,723.882 C 441.382,724.147 440.217,724.309 438.743,724.368 C 438.743,725.017 438.802,725.606 438.92,726.137 C 439.038,726.668 439.244,727.169 439.539,727.641 C 440.423,727.7 441.411,727.832 442.502,728.039 C 443.593,728.245 444.684,728.481 445.775,728.746 C 446.865,729.012 447.897,729.307 448.87,729.631 C 449.843,729.955 450.683,730.294 451.391,730.648 C 451.922,730.471 452.379,730.103 452.762,729.542 C 453.145,728.982 453.337,728.053 453.337,726.756 C 453.337,726.049 453.307,725.253 453.248,724.368 C 453.189,723.484 453.012,722.54 452.718,721.538 C 452.895,721.833 453.071,722.172 453.248,722.555 C 453.425,722.938 453.691,723.366 454.044,723.837 C 454.516,724.545 455.165,725.267 455.99,726.004 C 456.816,726.742 457.774,727.42 458.865,728.039 C 459.956,728.658 461.164,729.174 462.491,729.587 C 463.818,729.999 465.277,730.206 466.869,730.206 C 468.52,730.206 470.112,729.955 471.645,729.454 C 473.179,728.953 474.535,728.142 475.714,727.022 C 476.893,725.901 477.822,724.427 478.5,722.599 C 479.178,720.771 479.517,718.501 479.517,715.789 L 479.517,700.576 Z" marker-start="none" marker-end="none"/>
   </g>
   <g id="Group_2">
    <ellipse rx="57.911" ry="57.911" transform="translate(167.852 717.838) rotate(137.06)" fill="#ed1c24" stroke-width="1.062" stroke="#000000" stroke-linecap="round" stroke-linejoin="round"/>
    <ellipse rx="52.766" ry="52.765" transform="translate(167.851 717.838) rotate(137.06)" stroke="none" stroke-width="1.062" fill="#ffffff" stroke-linecap="round" stroke-linejoin="round"/>
    <g id="Group_3" stroke="#7b1414" stroke-linejoin="round" stroke-linecap="round" stroke-width="1.062" fill="#ffffff">
     <path d="M 180.879,666.694 C 167.286,671.019 162.297,682.239 163.918,694.755" fill="none"/>
     <path d="M 189.562,669.734 C 175.425,671.631 168.565,681.816 167.984,694.422" fill="none"/>
     <path d="M 171.801,665.21 C 159.165,671.827 156.201,683.744 159.969,695.789" fill="none"/>
     <path d="M 162.601,665.325 C 151.307,674.034 150.458,686.284 156.258,697.493" fill="none"/>
     <path d="M 153.563,667.034 C 143.952,677.574 145.243,689.785 152.901,699.816" fill="none"/>
     <path d="M 137.068,674.972 C 131.637,688.161 137.02,699.196 147.645,706.006" fill="none"/>
     <path d="M 144.978,670.276 C 137.34,682.32 140.725,694.126 150.007,702.676" fill="none"/>
     <path d="M 130.091,680.968 C 127.032,694.899 134.25,704.835 145.897,709.696" fill="none"/>
     <path d="M 124.263,688.086 C 123.668,702.335 132.503,710.866 144.816,713.63" fill="none"/>
     <path d="M 119.759,696.105 C 121.646,710.244 131.829,717.111 144.435,717.694" fill="none"/>
     <path d="M 115.223,713.889 C 121.841,726.525 133.757,729.491 145.802,725.723" fill="none"/>
     <path d="M 116.71,704.811 C 121.031,718.403 132.251,723.392 144.767,721.774" fill="none"/>
     <path d="M 115.338,723.089 C 124.049,734.383 136.3,735.234 147.505,729.431" fill="none"/>
     <path d="M 117.047,732.127 C 127.587,741.739 139.797,740.449 149.829,732.788" fill="none"/>
     <path d="M 120.301,740.733 C 132.347,748.367 144.151,744.976 152.698,735.69" fill="none"/>
     <path d="M 130.979,755.6 C 144.911,758.66 154.845,751.441 159.707,739.794" fill="none"/>
     <path d="M 124.981,748.622 C 138.171,754.055 149.209,748.672 156.019,738.045" fill="none"/>
     <path d="M 138.095,761.429 C 152.348,762.022 160.878,753.188 163.643,740.876" fill="none"/>
     <path d="M 146.118,765.932 C 160.255,764.043 167.122,753.863 167.707,741.257" fill="none"/>
     <path d="M 154.799,768.976 C 168.394,764.66 173.389,753.442 171.776,740.925" fill="none"/>
     <path d="M 173.087,770.356 C 184.385,761.649 185.239,749.398 179.439,738.188" fill="none"/>
     <path d="M 163.888,770.467 C 176.525,763.855 179.493,751.938 175.729,739.891" fill="none"/>
     <path d="M 182.126,768.649 C 191.74,758.113 190.453,745.9 182.797,735.867" fill="none"/>
     <path d="M 190.733,765.399 C 198.37,753.352 194.983,741.549 185.701,732.998" fill="none"/>
     <path d="M 198.645,760.702 C 204.073,747.514 198.687,736.476 188.061,729.67" fill="none"/>
     <path d="M 211.433,747.608 C 212.033,733.355 203.201,724.823 190.887,722.054" fill="none"/>
     <path d="M 205.603,754.722 C 208.665,740.792 201.449,730.854 189.804,725.99" fill="none"/>
     <path d="M 215.939,739.588 C 214.054,725.449 203.875,718.579 191.269,717.99" fill="none"/>
     <path d="M 218.987,730.906 C 214.674,717.312 203.457,712.313 190.939,713.921" fill="none"/>
     <path d="M 220.477,721.828 C 213.87,709.188 201.957,706.214 189.909,709.972" fill="none"/>
     <path d="M 218.63,703.446 C 208.07,693.858 195.858,695.172 185.845,702.853" fill="none"/>
     <path d="M 220.359,712.483 C 211.623,701.205 199.37,700.38 188.175,706.204" fill="none"/>
     <path d="M 215.357,694.849 C 203.293,687.237 191.5,690.653 182.969,699.954" fill="none"/>
     <path d="M 210.644,686.947 C 197.441,681.549 186.42,686.96 179.634,697.602" fill="none"/>
     <path d="M 204.63,679.988 C 190.692,676.962 180.774,684.204 175.941,695.863" fill="none"/>
     <path d="M 197.519,674.189 C 183.267,673.623 174.755,682.475 172.016,694.795" fill="none"/>
    </g>
    <ellipse rx="52.766" ry="52.765" transform="translate(167.851 717.838) rotate(137.06)" stroke-width="1.062" stroke-linecap="round" stroke-linejoin="round"/>
    <ellipse rx="23.236" ry="23.236" transform="translate(167.851 717.838) rotate(137.061)" stroke-width="1.062" stroke="#000000" fill="#ffffff" stroke-linecap="round" stroke-linejoin="round"/>
    <g id="Group_4" fill-rule="nonzero" stroke-linejoin="miter" stroke="none" stroke-width="0.351">
     <path d="M 167.614,737.543 C 165.957,737.534 164.376,737.398 162.984,737.159 C 158.883,736.454 158.139,734.986 158.139,732.272 L 158.139,728.691 L 167.828,728.691 L 167.828,727.496 L 158.139,727.496 L 154.503,727.496 C 151.686,727.496 149.221,725.852 148.45,722.729 C 147.561,719.147 147.522,716.912 148.45,713.174 C 149.14,710.39 150.785,708.408 153.6,708.408 L 156.931,708.408 L 156.931,712.701 C 156.931,715.806 159.698,718.542 162.984,718.542 L 172.662,718.542 C 175.357,718.542 177.504,720.694 177.504,723.321 L 177.504,732.272 C 177.504,734.821 175.291,736.732 172.662,737.159 C 170.997,737.428 169.272,737.55 167.614,737.543 Z M 162.372,734.662 C 163.375,734.662 164.194,733.853 164.194,732.863 C 164.194,731.877 163.375,731.077 162.372,731.077 C 161.37,731.077 160.557,731.877 160.557,732.863 C 160.557,733.853 161.37,734.662 162.372,734.662 Z" fill="#1763a3" marker-start="none" marker-end="none"/>
     <path d="M 178.713,727.496 L 178.713,723.321 C 178.713,720.085 175.886,717.358 172.662,717.358 L 162.984,717.358 C 160.332,717.358 158.139,715.157 158.139,712.583 L 158.139,703.63 C 158.139,701.083 160.423,699.583 162.984,698.853 C 166.049,697.978 168.992,697.819 172.662,698.853 C 175.101,699.537 177.504,700.918 177.504,703.63 L 177.504,707.213 L 167.828,707.213 L 167.828,708.408 L 177.504,708.408 L 182.35,708.408 C 185.165,708.408 186.215,710.313 187.194,713.174 C 188.206,716.118 188.163,718.951 187.194,722.729 C 186.498,725.449 185.171,727.496 182.35,727.496 L 178.713,727.496 Z M 173.269,704.825 C 174.277,704.825 175.091,704.024 175.091,703.038 C 175.091,702.048 174.277,701.241 173.269,701.241 C 172.272,701.241 171.453,702.048 171.453,703.038 C 171.453,704.024 172.272,704.825 173.269,704.825 Z" fill="#ffc200" marker-start="none" marker-end="none"/>
    </g>
   </g>
  </g>
 </g>
 <g id="Layer_1" transform="scale(1 -1)"/>
</svg>
